<svg xmlns="http://www.w3.org/2000/svg" width="1824" height="176" viewBox="0 0 1824 176">
  <defs>
    <linearGradient id="bg" x1="0%" y1="0%" x2="100%" y2="0%">
      <stop offset="0%" style="stop-color:#006699;stop-opacity:1" />
      <stop offset="60%" style="stop-color:#005580;stop-opacity:1" />
      <stop offset="100%" style="stop-color:#990066;stop-opacity:1" />
    </linearGradient>
    <linearGradient id="accent" x1="0%" y1="0%" x2="100%" y2="0%">
      <stop offset="0%" style="stop-color:#990066;stop-opacity:0.3" />
      <stop offset="100%" style="stop-color:#990066;stop-opacity:0" />
    </linearGradient>
  </defs>
  
  <!-- Background -->
  <rect width="1824" height="176" fill="url(#bg)"/>
  
  <!-- Subtle geometric pattern -->
  <!-- Diagonal lines for texture -->
  <g opacity="0.06">
    <line x1="200" y1="0" x2="350" y2="176" stroke="white" stroke-width="1"/>
    <line x1="300" y1="0" x2="450" y2="176" stroke="white" stroke-width="1"/>
    <line x1="400" y1="0" x2="550" y2="176" stroke="white" stroke-width="1"/>
    <line x1="500" y1="0" x2="650" y2="176" stroke="white" stroke-width="1"/>
    <line x1="600" y1="0" x2="750" y2="176" stroke="white" stroke-width="1"/>
    <line x1="700" y1="0" x2="850" y2="176" stroke="white" stroke-width="1"/>
    <line x1="800" y1="0" x2="950" y2="176" stroke="white" stroke-width="1"/>
    <line x1="900" y1="0" x2="1050" y2="176" stroke="white" stroke-width="1"/>
    <line x1="1000" y1="0" x2="1150" y2="176" stroke="white" stroke-width="1"/>
    <line x1="1100" y1="0" x2="1250" y2="176" stroke="white" stroke-width="1"/>
    <line x1="1200" y1="0" x2="1350" y2="176" stroke="white" stroke-width="1"/>
    <line x1="1300" y1="0" x2="1450" y2="176" stroke="white" stroke-width="1"/>
    <line x1="1400" y1="0" x2="1550" y2="176" stroke="white" stroke-width="1"/>
    <line x1="1500" y1="0" x2="1650" y2="176" stroke="white" stroke-width="1"/>
    <line x1="1600" y1="0" x2="1750" y2="176" stroke="white" stroke-width="1"/>
    <line x1="1700" y1="0" x2="1824" y2="144" stroke="white" stroke-width="1"/>
  </g>
  
  <!-- Decorative circles -->
  <circle cx="1650" cy="88" r="120" fill="white" opacity="0.03"/>
  <circle cx="1700" cy="40" r="80" fill="white" opacity="0.04"/>
  <circle cx="150" cy="140" r="90" fill="white" opacity="0.03"/>
  
  <!-- Network/connection dots pattern (right side) -->
  <g opacity="0.12" fill="white">
    <circle cx="1400" cy="30" r="3"/>
    <circle cx="1450" cy="55" r="2.5"/>
    <circle cx="1500" cy="25" r="2"/>
    <circle cx="1480" cy="70" r="3"/>
    <circle cx="1530" cy="50" r="2"/>
    <circle cx="1560" cy="85" r="2.5"/>
    <circle cx="1420" cy="80" r="2"/>
    <circle cx="1600" cy="35" r="3"/>
    <circle cx="1640" cy="70" r="2"/>
    <circle cx="1580" cy="110" r="2.5"/>
    <circle cx="1520" cy="130" r="2"/>
    <circle cx="1460" cy="120" r="3"/>
    <circle cx="1680" cy="100" r="2"/>
    <circle cx="1700" cy="55" r="2.5"/>
    <circle cx="1720" cy="130" r="2"/>
    <circle cx="1750" cy="80" r="3"/>
    <circle cx="1380" cy="110" r="2"/>
    <circle cx="1360" cy="60" r="2.5"/>
    <!-- Connection lines -->
    <line x1="1400" y1="30" x2="1450" y2="55" stroke="white" stroke-width="0.5"/>
    <line x1="1450" y1="55" x2="1500" y2="25" stroke="white" stroke-width="0.5"/>
    <line x1="1450" y1="55" x2="1480" y2="70" stroke="white" stroke-width="0.5"/>
    <line x1="1480" y1="70" x2="1530" y2="50" stroke="white" stroke-width="0.5"/>
    <line x1="1530" y1="50" x2="1560" y2="85" stroke="white" stroke-width="0.5"/>
    <line x1="1480" y1="70" x2="1420" y2="80" stroke="white" stroke-width="0.5"/>
    <line x1="1530" y1="50" x2="1600" y2="35" stroke="white" stroke-width="0.5"/>
    <line x1="1560" y1="85" x2="1640" y2="70" stroke="white" stroke-width="0.5"/>
    <line x1="1560" y1="85" x2="1580" y2="110" stroke="white" stroke-width="0.5"/>
    <line x1="1580" y1="110" x2="1520" y2="130" stroke="white" stroke-width="0.5"/>
    <line x1="1520" y1="130" x2="1460" y2="120" stroke="white" stroke-width="0.5"/>
    <line x1="1640" y1="70" x2="1680" y2="100" stroke="white" stroke-width="0.5"/>
    <line x1="1600" y1="35" x2="1700" y2="55" stroke="white" stroke-width="0.5"/>
    <line x1="1700" y1="55" x2="1750" y2="80" stroke="white" stroke-width="0.5"/>
    <line x1="1680" y1="100" x2="1720" y2="130" stroke="white" stroke-width="0.5"/>
    <line x1="1420" y1="80" x2="1380" y2="110" stroke="white" stroke-width="0.5"/>
    <line x1="1400" y1="30" x2="1360" y2="60" stroke="white" stroke-width="0.5"/>
    <line x1="1360" y1="60" x2="1380" y2="110" stroke="white" stroke-width="0.5"/>
    <line x1="1460" y1="120" x2="1380" y2="110" stroke="white" stroke-width="0.5"/>
  </g>
  
  <!-- Logo mark - stylized "TH" shield -->
  <g transform="translate(80, 28)">
    <!-- Shield shape -->
    <path d="M0,10 Q0,0 10,0 L50,0 Q60,0 60,10 L60,80 Q60,110 30,120 Q0,110 0,80 Z" fill="white" opacity="0.15"/>
    <path d="M4,13 Q4,5 12,5 L48,5 Q56,5 56,13 L56,78 Q56,105 30,115 Q4,105 4,78 Z" fill="white" opacity="0.15"/>
    <!-- TH letters -->
    <text x="30" y="72" font-family="Arial, Helvetica, sans-serif" font-size="42" font-weight="bold" fill="white" text-anchor="middle" letter-spacing="-1">TH</text>
  </g>
  
  <!-- App name -->
  <text x="170" y="78" font-family="Arial, Helvetica, sans-serif" font-size="38" font-weight="bold" fill="white" letter-spacing="0.5">Transparency Hub Network</text>
  
  <!-- Tagline -->
  <text x="170" y="118" font-family="Arial, Helvetica, sans-serif" font-size="18" fill="white" opacity="0.85" letter-spacing="0.3">AI-Powered Meeting Notes &amp; Association Management</text>
  
  <!-- Feature pills -->
  <g transform="translate(170, 132)">
    <!-- Pill 1 -->
    <rect x="0" y="0" width="140" height="26" rx="13" fill="white" opacity="0.12"/>
    <text x="70" y="17" font-family="Arial, Helvetica, sans-serif" font-size="11" fill="white" text-anchor="middle" opacity="0.9">📝 Auto Transcripts</text>
    
    <!-- Pill 2 -->
    <rect x="152" y="0" width="120" height="26" rx="13" fill="white" opacity="0.12"/>
    <text x="212" y="17" font-family="Arial, Helvetica, sans-serif" font-size="11" fill="white" text-anchor="middle" opacity="0.9">🤖 AI Minutes</text>
    
    <!-- Pill 3 -->
    <rect x="284" y="0" width="150" height="26" rx="13" fill="white" opacity="0.12"/>
    <text x="359" y="17" font-family="Arial, Helvetica, sans-serif" font-size="11" fill="white" text-anchor="middle" opacity="0.9">🔒 Secure Recording</text>
  </g>
  
  <!-- Bottom accent line -->
  <rect x="0" y="172" width="1824" height="4" fill="#990066" opacity="0.6"/>
</svg>
